<svg id="brand" xmlns="http://www.w3.org/2000/svg" xml:space="preserve" width="300px" height="100px" version="1.1"
            viewBox="0 0 200 50" xmlns:xlink="http://www.w3.org/1999/xlink"
            xmlns:xodm="http://www.corel.com/coreldraw/odm/2003">
            <defs>
              <style type="text/css">
                <![CDATA[
                .fil0 {
                  fill:
                }
                ]]>
              </style>
            </defs>
            <g id="0020_1">
              <metadata id="CorelCorpID_0Corel-Layer" />
              <path class="fil0"
                d="M26.59 24.47c0.03,0.31 1.21,3.36 1.43,4.55 0.37,1.95 0.47,4.41 0.67,6.42 1.22,-2.18 0.39,-4.4 1.2,-6.95 0.8,-2.52 -0.46,-5.55 -3.3,-4.02zm114.74 8.3c-4.33,1.49 -3.15,-0.49 -5.97,0.18l-0.23 2.73c3.9,1.64 8.04,1.39 9.95,-2.1 2.45,-8.92 -6.9,-7.67 -6.06,-14.84l4.72 -0.32 0.27 -3.07c-4.86,-1.47 -9.52,1.01 -8.72,6.43 0.63,4.35 7.73,4.95 6.04,10.99zm48.18 3.66l2.65 0.1 0.48 -7.11c4.69,-2.48 7.79,-1.4 6.93,-8.81 -0.69,-5.88 -5.05,-5.85 -9.86,-5.62 -1.13,3 -0.95,18 -0.2,21.44zm3.1 -17.86c4.58,-0.13 4.97,7.26 -0.07,6.92l0.07 -6.92zm-88.96 17.18c2.91,0.83 6.28,0.8 9.08,0.04l0.02 -3.2 -5.31 -0.71 0.14 -4.74 5.06 -0.85 -0.02 -3.14 -4.9 -0.31 -0.15 -3.81 5.24 -0.74 0.06 -3.53 -8.98 0.21 -0.24 20.78zm-49.88 0.6c5.48,-0.01 2.45,-1.6 4.44,-2.77 7.11,-1.1 0.55,2.61 8.08,2.78l-4.49 -21.22 -3.63 -0.21c-0.98,3.39 -4.63,18.87 -4.4,21.42zm6.04 -11.94c0.17,0.54 0.86,2.42 0.9,2.88 0.23,2.61 0.25,0.82 -0.53,2.57 -2.17,-1.56 -1.62,-2.38 -0.37,-5.45zm-21.82 11.49c8.87,1.76 13.35,-3.88 7.96,-11.04 1.16,-2.62 2.8,-4.68 0.62,-7.81 -1.79,-2.56 -5.45,-2.38 -8.23,-2.03l-0.35 20.88zm4.75 -12.41c-0.91,-0.88 -1.34,1.26 -1.33,-2.9 0,-2.16 0.59,-1.92 0.85,-2.39 2.68,2.1 2.31,2.52 0.48,5.29zm-1.07 8.91c-0.19,-2.41 -0.62,-3.72 0.73,-5.67 2.73,1.5 3.22,4.79 -0.73,5.67zm46.55 3.33c7.77,2.58 13.37,-3.05 7.97,-10.89 1.02,-2.71 3.08,-4.35 0.49,-7.95 -1.74,-2.43 -5.67,-2.34 -8.21,-1.73l-0.25 20.57zm4.11 -12.33c-0.85,-1.8 -0.85,-3.23 0.03,-4.99 2.7,1.44 2.78,3.64 -0.03,4.99zm-0.17 9.11c-0.49,-2.39 -0.6,-3.36 0.22,-5.53 3.54,0.95 3.05,5.06 -0.22,5.53zm-20.83 3.77l3.23 0.28 0.44 -7.91c4.07,4.14 0.74,7.83 7.93,7.94 -0.58,-3.65 -2.76,-5.88 -3.87,-9.44 6.73,-5.98 2.71,-13.44 -7.5,-11.98l-0.23 21.11zm3.97 -17.09c3.72,-1.67 4.95,5.62 -0.4,5.55l0.4 -5.55zm42.68 17.25l3.42 0.03 0.29 -7.64 4.28 7.76 3.76 0.02 -4.04 -9.33c2.28,-3.15 4.42,-4.25 2.55,-8.85 -1.75,-4.31 -5.84,-3.61 -9.82,-3.44l-0.44 21.45zm3.79 -11.56c-0.32,-2.65 -0.73,-4.24 0.79,-6.36 3.68,1.1 3.8,5.7 -0.79,6.36zm53.01 -9.72c-11.12,2.54 -7.65,24.16 3.12,21.08 9.63,-2.75 7.73,-23.56 -3.12,-21.08zm1.36 2.82c6.84,2.44 5.61,14.87 -0.07,14.97 -5.29,0.09 -7.03,-12.37 0.07,-14.97zm-25.45 18.3l3.65 0.09 0.18 -8.82 4.82 0 -0.03 8.84 3.32 0.09c0.71,-3.13 0.69,-18.33 -0.06,-21.46l-2.98 -0.08 -0.51 8.65 -4.44 0.14 -0.17 -8.6 -3.59 -0.1 -0.19 21.25zm-134.02 -12.37l0.87 0.07 -0.01 -0.72c-0.04,-2.91 0.35,-5.42 -1.72,-7.39 4.52,2.03 2.62,3.6 2.25,7.39l-0.24 1.02c3.03,-0.26 6.92,0.35 9.37,-1.02 2.58,-1.44 3.11,-4.35 1.63,-6.98 -2.92,-5.16 -10.63,-2.35 -15.3,-5.16 -0.56,1.01 0.33,0.44 -0.23,1.39 -2.42,-0.83 -2.62,-0.5 -4.61,0.24 1.71,0.14 0.41,-0.18 1.44,0.42 -1.53,0.51 -1.95,0.47 -2.8,1.79 3.3,0.19 5.18,2.02 6.28,4.92 -1.42,-1.76 -2.26,-3.04 -4.6,-3.78 -1.97,-0.63 -5.12,-0.98 -6.4,0.83 0.46,1.6 -0.1,0.46 1.23,1.38 -5.52,2.71 -2.89,3.11 -3.1,6.44 -0.06,1.02 0.04,1.97 0.31,2.94 0.57,2.09 1.62,2.59 1.85,5.26 0.11,1.18 1.05,5.68 1.02,5.92 1,-7.01 0.61,-2.99 0.51,-8.84 -0.06,-3.21 0.28,-5.58 3.24,-6.61l-0.06 -2.17 0.91 2.1 8.16 0.56zm5.36 -1.52c0.32,-1.41 0.82,-2.79 0.31,-4.35 -0.26,-0.79 -1.5,-2.82 -1.99,-3.08 1.42,0.19 3.33,1.41 3.65,2.87 0.22,1.01 -0.08,1.91 -0.48,2.81 -0.97,2.16 -1.22,1.64 -1.49,1.75z" />
            </g>
          </svg>