<?xml version="1.0" encoding="UTF-8"?>
<!DOCTYPE svg PUBLIC "-//W3C//DTD SVG 1.1//EN" "http://www.w3.org/Graphics/SVG/1.1/DTD/svg11.dtd">
<!-- Creator: CorelDRAW 2020 (64-Bit) -->
<svg xmlns="http://www.w3.org/2000/svg" xml:space="preserve" width="1000px" height="130px" version="1.1" style="shape-rendering:geometricPrecision; text-rendering:geometricPrecision; image-rendering:optimizeQuality; fill-rule:evenodd; clip-rule:evenodd"
viewBox="0 0 1000 130"
 xmlns:xlink="http://www.w3.org/1999/xlink"
 xmlns:xodm="http://www.corel.com/coreldraw/odm/2003">
 <defs>
  <style type="text/css">
   <![CDATA[
    .fil1 {fill:#2B2A29;fill-rule:nonzero}
    .fil0 {fill:black;fill-rule:nonzero}
   ]]>
  </style>
 </defs>
 <g id="Слой_x0020_1">
  <metadata id="CorelCorpID_0Corel-Layer"/>
  <g id="_2662442485760">
   <path class="fil0" d="M155.9 62.54c0.14,1.45 5.67,15.75 6.7,21.33 1.73,9.14 2.2,20.67 3.14,30.09 5.72,-10.22 1.83,-20.62 5.63,-32.58 3.75,-11.81 -2.16,-26.01 -15.47,-18.84zm-46.5 -2.63l4.07 0.33 -0.04 -3.37c-0.19,-13.64 1.64,-25.41 -8.06,-34.64 21.18,9.51 12.28,16.87 10.54,34.64l-1.12 4.78c14.2,-1.22 32.43,1.64 43.92,-4.78 12.09,-6.75 14.58,-20.39 7.64,-32.72 -13.69,-24.19 -49.83,-11.02 -71.72,-24.19 -2.63,4.73 1.55,2.06 -1.08,6.52 -11.34,-3.89 -12.28,-2.35 -21.61,1.12 8.02,0.66 1.92,-0.84 6.75,1.97 -7.17,2.39 -9.14,2.2 -13.12,8.39 15.47,0.89 24.28,9.47 29.43,23.06 -6.65,-8.25 -10.59,-14.25 -21.56,-17.72 -9.23,-2.95 -24,-4.59 -30,3.89 2.16,7.5 -0.47,2.16 5.77,6.47 -25.88,12.71 -13.55,14.58 -14.53,30.19 -0.28,4.78 0.18,9.24 1.45,13.78 2.67,9.8 7.59,12.14 8.67,24.66 0.52,5.53 4.92,26.63 4.78,27.75 4.69,-32.86 2.86,-14.02 2.39,-41.44 -0.28,-15.05 1.32,-26.16 15.19,-30.98l-0.28 -10.17 4.27 9.84 38.25 2.63 0 -0.01zm25.12 -7.12c1.5,-6.61 3.85,-13.08 1.45,-20.39 -1.21,-3.7 -7.03,-13.22 -9.32,-14.44 6.65,0.89 15.61,6.61 17.11,13.45 1.03,4.74 -0.38,8.96 -2.25,13.18 -4.55,10.12 -5.72,7.68 -6.99,8.2l0 0z"/>
  </g>
  <path class="fil1" d="M287.35 67.89c-1.68,-4.54 -4.4,-8.3 -7.65,-11.54l-0.51 -0.52c5.83,-12.31 2.46,-27.87 -8.3,-36.17 -10.89,-8.56 -28.79,-8.43 -38.12,0.91l0 70.79c2.59,5.45 6.35,9.34 11.28,11.67l0 12.19c12.96,4.15 27.74,0.13 36.69,-9.86 9.34,-10.11 11.8,-25.15 6.61,-37.47zm-10.89 35.27c-7.26,7.26 -17.89,10.5 -27.87,8.56l0 -7c12.31,3.11 25.15,-4.02 29.04,-16.21 3.76,-12.45 -2.98,-25.8 -15.43,-29.95 8.17,-5.19 11.02,-16.47 6.09,-24.9 -4.92,-8.29 -15.68,-11.54 -24.24,-7.13l0 71.31c-2.98,-1.81 -5.19,-4.28 -6.74,-7.52l0 -67.55c9.72,-7.26 23.59,-6.48 32.28,1.82 8.82,8.43 10.37,22.17 3.76,32.28 1.43,0.91 2.46,1.82 3.5,2.98 11.54,11.93 11.41,31.51 -0.39,43.31zm-7.78 -35.4c6.23,6.23 7.26,16.08 2.73,23.73 -4.93,7.65 -14.01,11.28 -22.82,8.43l0 -37.08c6.87,-2.21 15.17,-0.65 20.09,4.92zm-20.09 -38.25c8.68,-2.46 17.24,4.28 17.63,13.1 0.39,9.08 -8.82,16.47 -17.63,13.74l0 -26.84zm75.2 -15.94c-11.41,2.07 -20.23,12.18 -20.23,23.98l0 21.27 0 57.95 4.67 0 0 -36.43 7 4.02 0 32.41 4.67 0 0 -29.82 15.94 9.21 0 20.61 4.67 0 0 -23.34c-6.87,-4.01 -13.74,-7.77 -20.61,-11.79l0 -8.04c6.87,4.02 13.74,7.78 20.61,11.8l0 -47.85c0,-6.74 -5.7,-12.7 -12.7,-12.7 -6.88,0 -12.58,5.96 -12.58,12.7l0 41.36 -7 -4.02 0 -37.34c0,-10.76 8.81,-19.7 19.58,-19.7 10.76,0 19.7,8.94 19.7,19.7l0 79.22 4.67 0 0 -79.22c0,-15.17 -13.87,-26.45 -28.39,-23.98zm-3.89 23.98c0,-4.53 3.63,-8.04 7.91,-8.04 4.53,0 8.03,3.51 8.03,8.04l0 39.68 -15.94 -9.08 0 -30.6zm95.42 79.22l5.06 0 -14.52 -34.48c9.08,-11.16 11.67,-26.2 7.52,-39.68 -4.15,-12.84 -14.39,-23.21 -27.23,-27.36 -4.54,-1.55 -9.46,-2.2 -14.52,-2.07l23.6 55.88c-1.3,2.2 -2.98,4.15 -5.06,6.09l-20.35 -48.23 0 89.85 4.66 0 0 -66.77 7 16.6 0 50.17 4.67 0 0 -21c2.21,-0.65 4.41,-1.69 6.49,-2.72l9.98 23.72 5.06 0 -12.84 -30.6c-2.72,1.95 -5.58,3.64 -8.69,4.67l0 -7.65c11.41,-5.18 18.54,-17.76 17.51,-30.21 -1.04,-12.44 -9.73,-22.95 -21.4,-26.71l-3.37 -7.91c12.71,1.82 23.47,10.64 28.66,22.05 5.18,12.05 3.88,26.19 -3.77,36.95 -1.03,1.42 -2.2,2.59 -3.37,4.02l14.91 35.39zm-29.17 -81.16l0 -2.47c1.82,0.91 3.63,2.34 5.32,4.02 6.61,6.62 9.33,16.86 6.35,26.19l-11.67 -27.74zm97.24 32.28c-1.68,-4.54 -4.4,-8.3 -7.65,-11.54l-0.51 -0.52c5.83,-12.31 2.46,-27.87 -8.3,-36.17 -10.89,-8.56 -28.79,-8.43 -38.12,0.91l0 70.79c2.59,5.45 6.35,9.34 11.28,11.67l0 12.19c12.96,4.15 27.75,0.13 36.69,-9.86 9.34,-10.11 11.8,-25.15 6.61,-37.47zm-10.89 35.27c-7.26,7.26 -17.89,10.5 -27.87,8.56l0 -7c12.31,3.11 25.15,-4.02 29.04,-16.21 3.76,-12.45 -2.98,-25.8 -15.43,-29.95 8.17,-5.19 11.02,-16.47 6.09,-24.9 -4.92,-8.29 -15.68,-11.54 -24.24,-7.13l0 71.31c-2.98,-1.81 -5.19,-4.28 -6.74,-7.52l0 -67.55c9.72,-7.26 23.59,-6.48 32.28,1.82 8.82,8.43 10.37,22.17 3.76,32.28 1.43,0.91 2.46,1.82 3.5,2.98 11.54,11.93 11.41,31.51 -0.39,43.31zm-7.78 -35.4c6.23,6.23 7.26,16.08 2.73,23.73 -4.93,7.65 -14.01,11.28 -22.82,8.43l0 -37.08c6.87,-2.21 15.17,-0.65 20.09,4.92zm-20.09 -38.25c8.68,-2.46 17.24,4.28 17.63,13.1 0.39,9.08 -8.82,16.47 -17.63,13.74l0 -26.84zm95.55 -11.79l0 -4.54 -40.58 0 0 99.06 0 4.53 40.58 0 0 -4.53 -24.5 0 0 -6.88 24.5 0 0 -4.66 -24.5 0 0 -27.49 24.5 0 0 -4.54 -29.17 0 0 32.03 -6.87 0 0 -38.9 36.04 0 0 -4.54 -24.5 0 0 -28.01 24.5 0 0 -4.66 -29.17 0 0 32.67 -6.87 0 0 -39.54 36.04 0zm-36.04 94.52l0 -6.88 6.87 0 0 6.88 -6.87 0zm98.93 4.53l5.05 0 -14.52 -34.48c9.08,-11.16 11.67,-26.2 7.52,-39.68 -4.15,-12.84 -14.39,-23.21 -27.23,-27.36 -4.53,-1.55 -9.46,-2.2 -14.52,-2.07l23.6 55.88c-1.3,2.2 -2.98,4.15 -5.06,6.09l-20.35 -48.23 0 89.85 4.67 0 0 -66.77 7 16.6 0 50.17 4.66 0 0 -21c2.21,-0.65 4.41,-1.69 6.49,-2.72l9.98 23.72 5.06 0 -12.84 -30.6c-2.72,1.95 -5.57,3.64 -8.69,4.67l0 -7.65c11.41,-5.18 18.55,-17.76 17.51,-30.21 -1.04,-12.44 -9.73,-22.95 -21.4,-26.71l-3.37 -7.91c12.71,1.82 23.47,10.64 28.66,22.05 5.18,12.05 3.89,26.19 -3.76,36.95 -1.04,1.42 -2.21,2.59 -3.37,4.02l14.91 35.39zm-29.18 -81.16l0 -2.47c1.82,0.91 3.64,2.34 5.32,4.02 6.61,6.62 9.33,16.86 6.35,26.19l-11.67 -27.74zm92.19 -8.04c-0.91,-1.69 -2.46,-3.5 -4.8,-5.77 -1.94,-1.71 -3.76,-3.31 -5.96,-4.47 -4.28,-2.6 -9.47,-4.15 -14.65,-4.15 -2.6,0 -5.06,0.39 -7.52,0.9 -2.47,0.65 -4.8,1.56 -7.26,2.99 -4.67,2.76 -8.17,6.59 -10.64,11.54 -2.46,4.79 -3.24,10.37 -2.33,15.68 0.91,5.58 3.37,10.38 6.87,14.01 5.58,6.09 13.23,9.2 20.49,13.48 2.98,1.69 5.57,3.5 7.78,5.45 2.07,1.94 3.37,3.76 4.02,5.57 0.64,1.95 0.77,4.28 0.26,7.01 -0.39,2.33 -1.3,4.4 -2.73,6.09 -2.72,3.5 -7.39,4.93 -12.44,4.02 -5.06,-0.91 -9.73,-4.02 -13.75,-8.56l-3.5 3.11c4.54,5.06 10.24,9.08 16.47,10.12 3.11,0.51 6.22,0.26 9.33,-0.65 3.12,-1.04 5.58,-2.73 7.52,-5.06 1.95,-2.33 3.25,-5.06 3.76,-8.3 0.52,-3.5 0.39,-6.48 -0.51,-9.2 -1.95,-5.71 -7.78,-9.99 -13.88,-13.62 -4.8,-2.98 -9.85,-5.31 -14.52,-8.42 -1.68,-1.04 -3.24,-2.47 -4.8,-4.15 -3.11,-3.25 -5.05,-7.01 -5.83,-11.54 -0.65,-4.54 0,-8.95 1.94,-12.97 1.95,-4.02 4.93,-7.28 8.82,-9.53 1.94,-1.06 4.02,-1.99 6.09,-2.53 2.08,-0.52 4.15,-0.77 6.36,-0.77 4.41,0 8.55,1.18 12.31,3.56 1.69,0.93 3.38,2.25 5.06,3.83l2.21 2.33c0.64,0.91 1.29,1.55 1.94,2.59l3.89 -2.59zm-9.85 6.35c-2.86,-5.31 -9.47,-8.94 -15.56,-8.94 -3.24,0 -6.1,0.77 -8.82,2.33 -2.72,1.43 -4.67,3.5 -6.09,6.48 -1.43,2.85 -1.82,5.71 -1.3,8.69 0.39,2.98 1.69,5.58 4.02,8.04 1.68,1.68 3.5,3.11 5.58,4.28l2.46 1.42c3.24,1.95 6.48,3.63 9.72,5.58 3.24,1.94 6.48,4.02 9.6,6.74 2.98,2.72 5.83,6.23 7.26,10.5 1.42,4.15 1.42,8.69 0.78,12.71 -0.65,4.15 -2.34,8.17 -5.32,11.67 -2.72,3.37 -6.35,5.7 -10.63,7.13 -4.15,1.43 -8.56,1.56 -12.71,0.91 -4.15,-0.65 -8.04,-2.34 -11.54,-4.54 -3.24,-2.07 -6.35,-4.67 -9.07,-7.78l-3.5 2.98c2.98,3.5 6.35,6.35 10.11,8.82 4.02,2.59 8.43,4.28 13.22,5.18 5.06,0.91 10.12,0.52 14.91,-1.16 5.06,-1.69 9.34,-4.54 12.84,-8.56 3.5,-4.02 5.58,-8.95 6.22,-14 0.39,-2.21 0.65,-4.67 0.52,-7.13 -0.13,-2.6 -0.52,-5.19 -1.42,-7.78 -0.91,-2.47 -2.21,-4.8 -3.63,-7 -1.56,-2.08 -3.25,-3.76 -4.93,-5.32 -3.5,-3.11 -6.74,-5.32 -10.24,-7.39 -3.51,-2.07 -6.75,-3.76 -9.86,-5.71 -4.02,-2.46 -5.44,-3.11 -7,-4.79 -1.43,-1.69 -2.46,-3.5 -2.85,-5.58 -0.26,-2.07 0,-4.02 0.91,-5.83 0.9,-1.95 2.33,-3.37 4.27,-4.54 1.95,-1.17 4.15,-1.69 6.49,-1.69 4.53,0 8.94,2.73 11.67,6.75l3.89 -2.47zm66.12 38.9l-7 0 0 -59.51 -4.67 0 0 59.51 -14 0 0 -59.51 -4.67 0 0 59.51 -7 0 0 -59.51 -4.67 0 0 103.46 4.67 0 0 -27.61 7 0 0 27.61 4.67 0 0 -27.61 14 0 0 27.61 4.67 0 0 -32.28 -30.34 0 0 -7 37.34 0 0 39.28 4.67 0 0 -103.59 -4.67 0 0 59.64zm54.33 -44.99c-2.21,-2.08 -5.32,-2.98 -8.3,-2.98 -3.11,0 -5.96,0.9 -8.43,2.98 -2.59,2.46 -4.02,5.57 -4.02,9.07l0 56.79c0,3.51 1.43,6.62 4.02,9.08 2.47,2.08 5.32,2.98 8.43,2.98 2.98,0 6.09,-0.9 8.3,-2.98 3.11,-2.46 4.54,-5.57 4.54,-9.08l0 -56.79c0,-3.5 -1.43,-6.61 -4.54,-9.07zm-0.26 65.86c0,2.34 -0.91,4.28 -2.6,5.71 -1.55,1.43 -3.49,1.94 -5.44,1.94 -2.08,0 -4.02,-0.51 -5.58,-1.94 -1.68,-1.43 -2.59,-3.37 -2.59,-5.71l0 -56.79c0,-2.33 0.91,-4.27 2.59,-5.7 1.56,-1.43 3.5,-1.95 5.58,-1.95 1.95,0 3.89,0.52 5.44,1.95 1.69,1.43 2.6,3.37 2.6,5.7l0 56.79zm7.91 -74.27c-4.15,-4.56 -10.38,-6.24 -15.95,-6.24 -6.22,0 -11.54,2.07 -15.56,6.24 -4.8,4.37 -7.65,10.87 -7.65,17.48l0 56.79c0,6.62 2.85,13.1 7.65,17.38 4.54,4.02 9.86,5.7 15.56,5.7 6.09,0 11.8,-2.07 15.95,-5.7 4.79,-4.28 7.65,-10.76 7.65,-17.38l0 -56.79c0,-6.61 -2.86,-13.11 -7.65,-17.48zm3.37 74.27c0,5.32 -2.21,10.51 -6.23,14.01 -3.62,3.5 -8.55,4.67 -13.09,4.67 -5.32,0 -9.47,-1.56 -12.71,-4.67 -4.02,-3.5 -6.22,-8.69 -6.22,-14.01l0 -56.79c0,-5.31 2.2,-10.5 6.22,-14.02 3.76,-3.59 7.91,-5.29 12.71,-5.29 5.06,0 9.85,2.11 13.09,5.29 4.02,3.52 6.23,8.71 6.23,14.02l0 56.79zm63.79 -54.45c-2.07,-5.19 -5.06,-9.73 -9.08,-13.74 -4.02,-3.9 -8.68,-7.01 -13.74,-9.21 -6.61,-2.72 -12.84,-3.11 -19.45,-3.11l0 103.59 4.67 0 0 -30.6c2.33,-0.13 4.67,-0.51 7,-1.16l0 31.76 4.67 0 0 -21 3.11 -1.17c5.06,-2.07 9.72,-5.18 13.74,-9.2 4.02,-4.02 7.01,-8.56 9.08,-13.75 2.2,-5.05 3.24,-10.63 3.24,-16.2 0,-5.58 -1.04,-11.03 -3.24,-16.21zm-4.28 30.73c-1.81,4.54 -4.54,8.55 -8.17,12.19 -3.76,3.75 -8.43,7.26 -13.48,8.68l0 -7.65c3.24,-1.42 6.09,-3.5 8.56,-5.96 5.7,-5.71 9.07,-13.62 8.94,-21.78 0.13,-8.17 -3.24,-15.95 -8.94,-21.66 -2.47,-2.59 -5.45,-4.54 -8.56,-6.09 -1.56,-0.65 -3.11,-1.3 -4.67,-1.69l0 54.07c-2.33,0.78 -4.67,1.3 -7,1.43l0 -63.66c2.46,0 4.54,0.38 7,0.9 7.13,1.69 13.1,5.06 18.15,10.12 3.5,3.5 6.23,7.52 8.17,12.18 1.95,4.54 2.85,9.34 2.85,14.4 0,5.05 -0.9,9.98 -2.85,14.52zm-21.65 -36.95c1.94,1.03 3.63,2.46 5.18,4.01 5.06,4.8 7.65,11.54 7.65,18.42 0,6.87 -2.59,13.61 -7.65,18.41 -1.55,1.55 -3.24,2.98 -5.18,4.15l0 -44.99z"/>
 </g>
</svg>
